<svg width="70" height="31" viewBox="0 0 70 31" fill="none" xmlns="http://www.w3.org/2000/svg">
<path d="M4.77094 11.24C5.54427 10.1733 6.5976 9.30667 7.93094 8.64C9.29094 7.94667 10.7976 7.6 12.4509 7.6C14.3976 7.6 16.1576 8.06667 17.7309 9C19.3043 9.93333 20.5443 11.2667 21.4509 13C22.3576 14.7067 22.8109 16.6667 22.8109 18.88C22.8109 21.0933 22.3576 23.08 21.4509 24.84C20.5443 26.5733 19.2909 27.9333 17.6909 28.92C16.1176 29.88 14.3709 30.36 12.4509 30.36C10.7443 30.36 9.22427 30.0267 7.89094 29.36C6.58427 28.6933 5.54427 27.84 4.77094 26.8V30H0.210938V0.4H4.77094V11.24ZM18.1709 18.88C18.1709 17.36 17.8509 16.0533 17.2109 14.96C16.5976 13.84 15.7709 13 14.7309 12.44C13.7176 11.8533 12.6243 11.56 11.4509 11.56C10.3043 11.56 9.21094 11.8533 8.17094 12.44C7.1576 13.0267 6.33094 13.88 5.69094 15C5.0776 16.12 4.77094 17.44 4.77094 18.96C4.77094 20.48 5.0776 21.8133 5.69094 22.96C6.33094 24.08 7.1576 24.9333 8.17094 25.52C9.21094 26.1067 10.3043 26.4 11.4509 26.4C12.6243 26.4 13.7176 26.1067 14.7309 25.52C15.7709 24.9067 16.5976 24.0267 17.2109 22.88C17.8509 21.7333 18.1709 20.4 18.1709 18.88ZM36.8803 30.36C34.8003 30.36 32.9203 29.8933 31.2403 28.96C29.5603 28 28.2403 26.6667 27.2803 24.96C26.3203 23.2267 25.8403 21.2267 25.8403 18.96C25.8403 16.72 26.3336 14.7333 27.3203 13C28.307 11.2667 29.6536 9.93333 31.3603 9C33.067 8.06667 34.9736 7.6 37.0803 7.6C39.187 7.6 41.0936 8.06667 42.8003 9C44.507 9.93333 45.8536 11.2667 46.8403 13C47.827 14.7333 48.3203 16.72 48.3203 18.96C48.3203 21.2 47.8136 23.1867 46.8003 24.92C45.787 26.6533 44.4003 28 42.6403 28.96C40.907 29.8933 38.987 30.36 36.8803 30.36ZM36.8803 26.4C38.0536 26.4 39.147 26.12 40.1603 25.56C41.2003 25 42.0403 24.16 42.6803 23.04C43.3203 21.92 43.6403 20.56 43.6403 18.96C43.6403 17.36 43.3336 16.0133 42.7203 14.92C42.107 13.8 41.2936 12.96 40.2803 12.4C39.267 11.84 38.1736 11.56 37.0003 11.56C35.827 11.56 34.7336 11.84 33.7203 12.4C32.7336 12.96 31.947 13.8 31.3603 14.92C30.7736 16.0133 30.4803 17.36 30.4803 18.96C30.4803 21.3333 31.0803 23.1733 32.2803 24.48C33.507 25.76 35.0403 26.4 36.8803 26.4ZM62.2681 18.84L69.3881 30H64.2281L59.4681 22.52L54.9881 30H50.2281L57.3481 19.16L50.2281 7.96H55.3881L60.1481 15.44L64.6281 7.96H69.3881L62.2681 18.84Z" fill="white"/>
</svg>
