<svg width="340" height="198" viewBox="0 0 340 198" fill="none" xmlns="http://www.w3.org/2000/svg">
<rect width="340" height="198" rx="20" fill="url(#paint0_linear_1_174)"/>
<path d="M123.996 135.064V155H120.412V146.348H110.192V155H106.636V135.064H110.192V143.408H120.412V135.064H123.996ZM128.068 140.86H131.54V155H128.068V140.86ZM131.736 134.448V137.892H127.844V134.448H131.736ZM140.549 155.224C137.992 155.224 135.957 154.627 134.445 153.432L135.425 150.968C136.937 152.088 138.664 152.648 140.605 152.648C141.445 152.648 142.089 152.508 142.537 152.228C143.004 151.948 143.237 151.556 143.237 151.052C143.237 150.623 143.078 150.287 142.761 150.044C142.444 149.783 141.902 149.559 141.137 149.372L138.785 148.84C136.209 148.28 134.921 146.964 134.921 144.892C134.921 144.033 135.164 143.277 135.649 142.624C136.134 141.952 136.816 141.429 137.693 141.056C138.57 140.683 139.588 140.496 140.745 140.496C141.753 140.496 142.724 140.655 143.657 140.972C144.59 141.271 145.412 141.709 146.121 142.288L145.085 144.668C143.666 143.623 142.21 143.1 140.717 143.1C139.914 143.1 139.289 143.249 138.841 143.548C138.393 143.847 138.169 144.257 138.169 144.78C138.169 145.191 138.3 145.517 138.561 145.76C138.841 146.003 139.308 146.208 139.961 146.376L142.369 146.908C143.769 147.225 144.786 147.72 145.421 148.392C146.074 149.045 146.401 149.904 146.401 150.968C146.401 152.275 145.878 153.311 144.833 154.076C143.788 154.841 142.36 155.224 140.549 155.224ZM153.711 143.492V149.82C153.711 151.481 154.486 152.312 156.035 152.312C156.465 152.312 156.931 152.237 157.435 152.088V154.86C156.819 155.084 156.073 155.196 155.195 155.196C153.59 155.196 152.358 154.748 151.499 153.852C150.641 152.956 150.211 151.668 150.211 149.988V143.492H147.495V140.86H150.211V137.416L153.711 136.24V140.86H157.463V143.492H153.711ZM166.281 155.224C164.844 155.224 163.574 154.925 162.473 154.328C161.39 153.731 160.55 152.881 159.953 151.78C159.374 150.66 159.085 149.353 159.085 147.86C159.085 146.367 159.374 145.069 159.953 143.968C160.55 142.848 161.39 141.989 162.473 141.392C163.574 140.795 164.844 140.496 166.281 140.496C167.7 140.496 168.95 140.795 170.033 141.392C171.116 141.989 171.946 142.848 172.525 143.968C173.122 145.069 173.421 146.367 173.421 147.86C173.421 149.353 173.122 150.66 172.525 151.78C171.946 152.881 171.116 153.731 170.033 154.328C168.95 154.925 167.7 155.224 166.281 155.224ZM166.253 152.48C167.448 152.48 168.353 152.097 168.969 151.332C169.604 150.548 169.921 149.391 169.921 147.86C169.921 146.348 169.604 145.2 168.969 144.416C168.334 143.613 167.438 143.212 166.281 143.212C165.105 143.212 164.2 143.613 163.565 144.416C162.93 145.2 162.613 146.348 162.613 147.86C162.613 149.391 162.921 150.548 163.537 151.332C164.172 152.097 165.077 152.48 166.253 152.48ZM184.055 140.524C184.596 140.524 185.063 140.599 185.455 140.748L185.427 143.94C184.83 143.697 184.214 143.576 183.579 143.576C182.384 143.576 181.47 143.921 180.835 144.612C180.219 145.303 179.911 146.217 179.911 147.356V155H176.439V144.864C176.439 143.371 176.364 142.036 176.215 140.86H179.491L179.771 143.352C180.126 142.437 180.686 141.737 181.451 141.252C182.216 140.767 183.084 140.524 184.055 140.524ZM187.404 140.86H190.876V155H187.404V140.86ZM191.072 134.448V137.892H187.18V134.448H191.072ZM201.117 155.224C199.642 155.224 198.363 154.925 197.281 154.328C196.198 153.731 195.367 152.891 194.789 151.808C194.21 150.707 193.921 149.419 193.921 147.944C193.921 146.469 194.219 145.172 194.817 144.052C195.433 142.932 196.291 142.064 197.393 141.448C198.513 140.813 199.801 140.496 201.257 140.496C202.265 140.496 203.235 140.655 204.169 140.972C205.121 141.289 205.877 141.728 206.437 142.288L205.457 144.752C204.859 144.267 204.225 143.903 203.553 143.66C202.881 143.399 202.218 143.268 201.565 143.268C200.295 143.268 199.306 143.669 198.597 144.472C197.887 145.256 197.533 146.395 197.533 147.888C197.533 149.381 197.878 150.52 198.569 151.304C199.278 152.088 200.277 152.48 201.565 152.48C202.218 152.48 202.881 152.349 203.553 152.088C204.225 151.827 204.859 151.453 205.457 150.968L206.437 153.432C205.839 153.992 205.065 154.431 204.113 154.748C203.161 155.065 202.162 155.224 201.117 155.224ZM222.311 140.86V155H218.867V152.732C218.437 153.516 217.821 154.132 217.019 154.58C216.216 155.009 215.301 155.224 214.275 155.224C213.043 155.224 211.951 154.925 210.999 154.328C210.047 153.731 209.309 152.881 208.787 151.78C208.264 150.679 208.003 149.4 208.003 147.944C208.003 146.488 208.264 145.2 208.787 144.08C209.328 142.941 210.075 142.064 211.027 141.448C211.979 140.813 213.061 140.496 214.275 140.496C215.301 140.496 216.216 140.72 217.019 141.168C217.821 141.597 218.437 142.204 218.867 142.988V140.86H222.311ZM215.227 152.48C216.384 152.48 217.28 152.079 217.915 151.276C218.549 150.473 218.867 149.344 218.867 147.888C218.867 146.395 218.549 145.247 217.915 144.444C217.28 143.641 216.375 143.24 215.199 143.24C214.041 143.24 213.136 143.66 212.483 144.5C211.848 145.321 211.531 146.469 211.531 147.944C211.531 149.4 211.848 150.52 212.483 151.304C213.136 152.088 214.051 152.48 215.227 152.48ZM226.123 134.392H229.595V155H226.123V134.392Z" fill="white"/>
<g clip-path="url(#clip0_1_174)">
<path d="M171.727 111.165C172.736 110.072 173.17 108.732 173.17 107.25C173.17 105.763 172.745 104.414 171.727 103.321C170.735 102.256 169.482 101.764 168.038 101.764C166.591 101.764 165.324 102.242 164.324 103.304C163.301 104.392 162.88 105.737 162.88 107.223C162.88 108.719 163.301 110.081 164.328 111.178C165.324 112.244 166.577 112.735 168.025 112.735C169.477 112.735 170.734 112.24 171.727 111.165ZM166.404 109.4C165.922 108.785 165.776 108.002 165.776 107.236C165.776 106.476 165.935 105.723 166.422 105.126C166.838 104.613 167.365 104.357 168.025 104.357C168.689 104.357 169.229 104.6 169.641 105.126C170.124 105.737 170.274 106.502 170.274 107.263C170.274 108.024 170.115 108.785 169.637 109.391C169.221 109.917 168.689 110.17 168.025 110.17C167.357 110.17 166.821 109.926 166.404 109.4Z" fill="white"/>
<path d="M161.335 101.941H156.137C155.783 101.941 155.473 102.078 155.229 102.335C154.99 102.587 154.862 102.892 154.862 103.242C154.862 103.609 154.99 103.927 155.251 104.184C155.495 104.414 155.787 104.551 156.124 104.551H157.337V111.258C157.337 111.642 157.479 111.979 157.748 112.248L157.753 112.258L157.762 112.262C158.045 112.514 158.382 112.669 158.763 112.669C159.139 112.669 159.467 112.518 159.728 112.248C159.993 111.974 160.135 111.642 160.135 111.258V104.565H161.335C161.685 104.565 161.995 104.436 162.242 104.184C162.49 103.932 162.623 103.622 162.623 103.268C162.623 102.91 162.495 102.591 162.247 102.335C161.999 102.078 161.689 101.941 161.335 101.941Z" fill="white"/>
<path d="M151.266 109.767C151.041 109.939 150.767 110.001 150.483 110.001C150.044 110.001 149.535 109.847 149.128 109.696C148.84 109.595 148.353 109.418 148.052 109.418C147.698 109.418 147.388 109.55 147.153 109.816C146.91 110.085 146.804 110.412 146.804 110.771V110.842C146.804 111.523 147.339 111.952 147.902 112.222C148.663 112.585 149.54 112.695 150.372 112.695C151.453 112.695 152.502 112.434 153.33 111.7C154.105 111.01 154.468 110.125 154.468 109.086C154.468 107.988 154.043 107.095 153.104 106.52C152.524 106.148 151.731 105.9 151.072 105.71C150.806 105.64 150.541 105.56 150.284 105.463C150.195 105.431 150.027 105.37 149.947 105.312C149.863 105.241 149.766 105.144 149.766 105.024C149.766 104.856 149.85 104.741 149.978 104.644C150.164 104.507 150.381 104.454 150.607 104.454C150.823 104.454 151.103 104.524 151.31 104.582L151.705 104.719C151.948 104.799 152.272 104.901 152.528 104.901C152.887 104.901 153.192 104.759 153.431 104.494C153.671 104.233 153.79 103.914 153.79 103.56C153.79 102.945 153.37 102.525 152.86 102.247C152.227 101.906 151.497 101.791 150.788 101.791C149.748 101.791 148.778 102.065 147.977 102.746C147.224 103.396 146.843 104.233 146.843 105.232C146.843 106.183 147.194 106.976 147.994 107.497C148.234 107.657 148.526 107.781 148.796 107.887C149.19 108.037 149.597 108.165 150.005 108.285C150.381 108.395 150.824 108.523 151.182 108.687C151.28 108.732 151.412 108.807 151.47 108.904C151.523 109.001 151.545 109.116 151.545 109.227C151.545 109.457 151.453 109.625 151.266 109.767Z" fill="white"/>
<path d="M186.793 112.253C187.068 112.518 187.396 112.669 187.776 112.669C188.166 112.669 188.507 112.518 188.772 112.231C189.033 111.952 189.175 111.616 189.175 111.231V107.648L191.774 104.091C191.96 103.839 192.048 103.551 192.048 103.241C192.048 102.852 191.898 102.516 191.615 102.251C191.345 101.99 191.013 101.844 190.636 101.844C190.154 101.844 189.764 102.056 189.494 102.454L187.776 104.918L186.072 102.454C185.806 102.051 185.412 101.844 184.929 101.844C184.535 101.844 184.181 101.981 183.902 102.264C183.637 102.53 183.486 102.861 183.486 103.241C183.486 103.556 183.605 103.843 183.792 104.091L186.364 107.648V111.231C186.364 111.629 186.506 111.979 186.793 112.253Z" fill="white"/>
<path d="M182.582 105.356C182.582 104.383 182.242 103.547 181.511 102.897C180.768 102.233 179.851 101.959 178.859 101.959H176.291C175.897 101.959 175.552 102.096 175.277 102.375C174.994 102.658 174.861 103.012 174.861 103.41V111.231C174.861 111.625 174.998 111.97 175.277 112.248L175.282 112.258L175.286 112.262C175.574 112.514 175.906 112.669 176.291 112.669C176.667 112.669 177.004 112.536 177.274 112.266C177.544 111.992 177.677 111.656 177.677 111.271V109.01L180.179 112.089C180.462 112.439 180.825 112.669 181.281 112.669C181.662 112.669 182.003 112.532 182.286 112.271L182.295 112.266L182.299 112.258C182.556 111.974 182.707 111.642 182.707 111.258C182.707 110.908 182.578 110.603 182.344 110.342L180.458 108.267C180.776 108.179 181.1 108.06 181.352 107.887C182.22 107.289 182.582 106.396 182.582 105.356ZM179.514 106.024C179.333 106.197 179.125 106.285 178.872 106.285H177.69V104.582H178.846C179.098 104.582 179.324 104.648 179.506 104.834L179.51 104.839L179.519 104.843C179.691 104.998 179.784 105.179 179.784 105.414C179.784 105.657 179.691 105.852 179.514 106.024Z" fill="white"/>
<path d="M137.936 112.271C138.206 112.545 138.542 112.682 138.927 112.682C139.317 112.682 139.653 112.536 139.924 112.253C140.185 111.979 140.327 111.651 140.327 111.271V103.268C140.327 102.875 140.189 102.53 139.915 102.247C139.645 101.977 139.313 101.831 138.928 101.831C138.542 101.831 138.21 101.994 137.944 102.273C137.683 102.552 137.528 102.884 137.528 103.268V105.825H133.857V103.268C133.857 102.879 133.721 102.538 133.455 102.26C133.189 101.981 132.857 101.831 132.472 101.831C132.082 101.831 131.746 101.99 131.475 102.273C131.21 102.552 131.059 102.884 131.059 103.268V111.271C131.059 111.66 131.196 112.001 131.475 112.275C131.75 112.545 132.086 112.682 132.472 112.682C132.857 112.682 133.193 112.545 133.459 112.271C133.729 111.997 133.857 111.656 133.857 111.271V108.436H137.528V111.271C137.528 111.66 137.665 111.996 137.936 112.271Z" fill="white"/>
<path d="M142.726 102.273C142.465 102.552 142.31 102.884 142.31 103.268V111.258C142.31 111.642 142.447 111.983 142.717 112.258C142.987 112.532 143.328 112.669 143.709 112.669C144.094 112.669 144.43 112.532 144.701 112.258C144.971 111.988 145.108 111.656 145.108 111.271V103.268C145.108 102.879 144.975 102.538 144.705 102.259C144.44 101.981 144.108 101.83 143.722 101.83C143.332 101.83 142.996 101.99 142.726 102.273Z" fill="white"/>
<path d="M198.425 66.9573H139.781L197.355 55.8269C197.765 55.7476 198.128 55.5083 198.362 55.1623C198.596 54.8156 198.683 54.3908 198.603 53.98L196.863 44.9956C196.697 44.1411 195.871 43.5821 195.017 43.7481L178.518 46.9372C178.484 46.9427 178.449 46.9488 178.415 46.9567L128.54 56.5972C128.534 56.5984 128.53 56.599 128.524 56.6003L121.277 58.001C120.866 58.081 120.504 58.3196 120.27 58.6663C120.036 59.0124 119.949 59.4378 120.029 59.8479L121.74 68.684V118.707C121.74 119.578 122.446 120.283 123.316 120.283H153.401C154.271 120.283 154.977 119.578 154.977 118.707C154.977 117.837 154.271 117.132 153.401 117.132H124.891V79.2614H131.887L131.891 79.262L131.893 79.2614H144.593L144.598 79.262L144.6 79.2614H157.305L157.309 79.262L157.312 79.2614H170.012L170.016 79.262L170.019 79.2614H182.719L182.723 79.262L182.726 79.2614H196.849V117.132H167.587C166.716 117.132 166.011 117.837 166.011 118.707C166.011 119.578 166.716 120.283 167.587 120.283H198.425C199.294 120.283 200 119.578 200 118.707V68.5332C200 67.6629 199.294 66.9573 198.425 66.9573ZM173.171 76.1101L177.676 70.1086H186.442L181.937 76.1101H173.171ZM160.463 76.1101L164.965 70.1086H173.735L169.23 76.1101H160.463ZM147.752 76.1101L152.258 70.1086H161.025L156.523 76.1101H147.752ZM135.045 76.1101L139.551 70.1086H148.317L143.812 76.1101H135.045ZM124.891 68.5332C124.891 67.6458 125.615 66.9237 126.504 66.9237C127.393 66.9237 128.116 67.6458 128.116 68.5332C128.116 69.4207 127.393 70.1427 126.504 70.1427C125.615 70.1427 124.891 69.4207 124.891 68.5332ZM140.947 57.409L147.248 62.304L138.882 63.9214L132.583 59.0258L140.947 57.409ZM153.423 54.9975L159.724 59.8919L151.362 61.5087L145.06 56.6137L153.423 54.9975ZM165.899 52.586L172.2 57.4804L163.838 59.0966L157.537 54.2028L165.899 52.586ZM178.379 50.1739L184.676 55.0683L176.313 56.6851L170.013 51.7907L178.379 50.1739ZM195.209 53.0321L188.789 54.273L182.492 49.3786L194.069 47.141L195.209 53.0321ZM128.47 59.8205L134.77 64.7167L130.245 65.5913C129.372 64.4848 128.02 63.7725 126.504 63.7725C125.637 63.7725 124.824 64.0063 124.123 64.4121L123.423 60.7964L128.47 59.8205ZM124.891 73.0126C125.395 73.1945 125.938 73.294 126.504 73.294C128.578 73.294 130.345 71.9616 130.998 70.1086H135.61L131.105 76.1101H124.891V73.0126ZM185.878 76.1101L190.383 70.1086H196.849V76.1101H185.878Z" fill="white"/>
<path d="M190.49 96.0405C191.36 96.0405 192.066 95.3356 192.066 94.4652V88.0199C192.066 87.1496 191.36 86.444 190.49 86.444H130.364C129.494 86.444 128.788 87.1496 128.788 88.0199V94.4652C128.788 95.3356 129.494 96.0405 130.364 96.0405H190.49ZM188.915 92.8893H171.385V89.5952H188.915V92.8893ZM168.234 92.8893H150.018V89.5952H168.234V92.8893ZM131.94 89.5952H146.866V92.8893H131.94V89.5952Z" fill="white"/>
<path d="M160.551 117.132H160.525C159.654 117.132 158.949 117.837 158.949 118.707C158.949 119.577 159.654 120.283 160.525 120.283H160.551C161.421 120.283 162.127 119.577 162.127 118.707C162.127 117.837 161.421 117.132 160.551 117.132Z" fill="white"/>
</g>
<defs>
<linearGradient id="paint0_linear_1_174" x1="11" y1="1.37127e-05" x2="340" y2="198" gradientUnits="userSpaceOnUse">
<stop stop-color="#B936FF"/>
<stop offset="1" stop-color="#57DEDA"/>
</linearGradient>
<clipPath id="clip0_1_174">
<rect width="80" height="80" fill="white" transform="translate(120 42)"/>
</clipPath>
</defs>
</svg>
