<svg width="340" height="198" viewBox="0 0 340 198" fill="none" xmlns="http://www.w3.org/2000/svg">
<rect width="340" height="198" rx="20" fill="url(#paint0_linear_1_161)"/>
<path d="M127.436 157.252C125.476 157.252 123.759 156.832 122.284 155.992C120.828 155.152 119.708 153.967 118.924 152.436C118.14 150.887 117.748 149.076 117.748 147.004C117.748 144.951 118.14 143.159 118.924 141.628C119.708 140.079 120.828 138.893 122.284 138.072C123.759 137.232 125.476 136.812 127.436 136.812C128.78 136.812 130.04 137.027 131.216 137.456C132.411 137.867 133.4 138.445 134.184 139.192L133.008 141.824C132.112 141.096 131.216 140.573 130.32 140.256C129.443 139.92 128.5 139.752 127.492 139.752C125.57 139.752 124.076 140.377 123.012 141.628C121.967 142.879 121.444 144.671 121.444 147.004C121.444 149.356 121.967 151.167 123.012 152.436C124.058 153.687 125.551 154.312 127.492 154.312C128.5 154.312 129.443 154.153 130.32 153.836C131.216 153.5 132.112 152.968 133.008 152.24L134.184 154.872C133.4 155.619 132.411 156.207 131.216 156.636C130.04 157.047 128.78 157.252 127.436 157.252ZM143.447 157.224C142.01 157.224 140.74 156.925 139.639 156.328C138.556 155.731 137.716 154.881 137.119 153.78C136.54 152.66 136.251 151.353 136.251 149.86C136.251 148.367 136.54 147.069 137.119 145.968C137.716 144.848 138.556 143.989 139.639 143.392C140.74 142.795 142.01 142.496 143.447 142.496C144.866 142.496 146.116 142.795 147.199 143.392C148.282 143.989 149.112 144.848 149.691 145.968C150.288 147.069 150.587 148.367 150.587 149.86C150.587 151.353 150.288 152.66 149.691 153.78C149.112 154.881 148.282 155.731 147.199 156.328C146.116 156.925 144.866 157.224 143.447 157.224ZM143.419 154.48C144.614 154.48 145.519 154.097 146.135 153.332C146.77 152.548 147.087 151.391 147.087 149.86C147.087 148.348 146.77 147.2 146.135 146.416C145.5 145.613 144.604 145.212 143.447 145.212C142.271 145.212 141.366 145.613 140.731 146.416C140.096 147.2 139.779 148.348 139.779 149.86C139.779 151.391 140.087 152.548 140.703 153.332C141.338 154.097 142.243 154.48 143.419 154.48ZM170.293 142.496C171.899 142.496 173.093 142.981 173.877 143.952C174.661 144.904 175.053 146.36 175.053 148.32V157H171.553V148.432C171.553 147.312 171.367 146.509 170.993 146.024C170.639 145.52 170.041 145.268 169.201 145.268C168.231 145.268 167.465 145.613 166.905 146.304C166.364 146.976 166.093 147.909 166.093 149.104V157H162.593V148.432C162.593 147.331 162.397 146.528 162.005 146.024C161.632 145.52 161.035 145.268 160.213 145.268C159.243 145.268 158.477 145.613 157.917 146.304C157.357 146.976 157.077 147.909 157.077 149.104V157H153.605V146.864C153.605 145.371 153.531 144.036 153.381 142.86H156.657L156.909 145.1C157.32 144.26 157.908 143.616 158.673 143.168C159.457 142.72 160.353 142.496 161.361 142.496C163.527 142.496 164.936 143.392 165.589 145.184C166.037 144.344 166.672 143.691 167.493 143.224C168.333 142.739 169.267 142.496 170.293 142.496ZM191.165 150.112H181.421C181.495 151.624 181.869 152.744 182.541 153.472C183.231 154.181 184.249 154.536 185.593 154.536C187.142 154.536 188.579 154.032 189.905 153.024L190.913 155.432C190.241 155.973 189.41 156.412 188.421 156.748C187.45 157.065 186.461 157.224 185.453 157.224C183.138 157.224 181.318 156.571 179.993 155.264C178.667 153.957 178.005 152.165 178.005 149.888C178.005 148.451 178.294 147.172 178.873 146.052C179.451 144.932 180.263 144.064 181.309 143.448C182.354 142.813 183.539 142.496 184.865 142.496C186.806 142.496 188.337 143.131 189.457 144.4C190.595 145.651 191.165 147.377 191.165 149.58V150.112ZM184.949 145.016C184.015 145.016 183.25 145.296 182.653 145.856C182.074 146.397 181.701 147.191 181.533 148.236H188.113C188.001 147.172 187.674 146.369 187.133 145.828C186.61 145.287 185.882 145.016 184.949 145.016ZM207.653 136.392V157H204.209V154.732C203.779 155.516 203.163 156.132 202.361 156.58C201.558 157.009 200.643 157.224 199.617 157.224C198.403 157.224 197.321 156.916 196.369 156.3C195.417 155.684 194.67 154.816 194.129 153.696C193.606 152.557 193.345 151.26 193.345 149.804C193.345 148.348 193.606 147.069 194.129 145.968C194.651 144.867 195.389 144.017 196.341 143.42C197.293 142.804 198.385 142.496 199.617 142.496C200.625 142.496 201.521 142.711 202.305 143.14C203.107 143.551 203.723 144.139 204.153 144.904V136.392H207.653ZM200.541 154.48C201.698 154.48 202.594 154.079 203.229 153.276C203.882 152.473 204.209 151.335 204.209 149.86C204.209 148.385 203.891 147.247 203.257 146.444C202.622 145.641 201.726 145.24 200.569 145.24C199.393 145.24 198.478 145.641 197.825 146.444C197.19 147.228 196.873 148.348 196.873 149.804C196.873 151.279 197.19 152.427 197.825 153.248C198.478 154.069 199.383 154.48 200.541 154.48ZM224.849 142.86L218.269 157.952C217.522 159.707 216.57 160.985 215.413 161.788C214.255 162.591 212.827 163.123 211.129 163.384L210.345 160.696C211.67 160.397 212.659 160.015 213.313 159.548C213.985 159.1 214.526 158.428 214.937 157.532L215.385 156.496L209.505 142.86H213.173L217.233 153.024L221.377 142.86H224.849Z" fill="white"/>
<path d="M186.812 92.1391C186.096 91.4974 184.995 91.56 184.356 92.2748C180.729 96.3287 175.497 98.6522 170 98.6522C164.504 98.6522 159.271 96.3287 155.643 92.2748C155.002 91.56 153.904 91.4974 153.188 92.1391C152.471 92.7791 152.412 93.8783 153.052 94.5948C157.339 99.3843 163.516 102.13 170 102.13C176.485 102.13 182.663 99.3826 186.948 94.5948C187.588 93.8783 187.527 92.7791 186.812 92.1391Z" fill="white"/>
<path d="M170 43C147.944 43 130 60.9443 130 83C130 105.056 147.944 123 170 123C192.056 123 210 105.056 210 83C210 60.9443 192.056 43 170 43ZM170 119.522C149.861 119.522 133.478 103.139 133.478 83C133.478 62.8609 149.861 46.4783 170 46.4783C190.139 46.4783 206.522 62.8609 206.522 83C206.522 103.139 190.139 119.522 170 119.522Z" fill="white"/>
<path d="M183.913 70.8261C179.118 70.8261 175.217 74.727 175.217 79.5218C175.217 80.4818 175.997 81.2609 176.957 81.2609C177.917 81.2609 178.696 80.4818 178.696 79.5218C178.696 76.6452 181.037 74.3044 183.913 74.3044C186.79 74.3044 189.13 76.6452 189.13 79.5218C189.13 80.4818 189.91 81.2609 190.87 81.2609C191.83 81.2609 192.609 80.4818 192.609 79.5218C192.609 74.727 188.708 70.8261 183.913 70.8261Z" fill="white"/>
<path d="M161.304 79.5218C161.304 80.4818 162.083 81.2609 163.043 81.2609C164.003 81.2609 164.783 80.4818 164.783 79.5218C164.783 74.727 160.882 70.8261 156.087 70.8261C151.292 70.8261 147.391 74.727 147.391 79.5218C147.391 80.4818 148.17 81.2609 149.13 81.2609C150.09 81.2609 150.87 80.4818 150.87 79.5218C150.87 76.6452 153.21 74.3044 156.087 74.3044C158.963 74.3044 161.304 76.6452 161.304 79.5218Z" fill="white"/>
<defs>
<linearGradient id="paint0_linear_1_161" x1="11" y1="3.1857e-05" x2="170" y2="99" gradientUnits="userSpaceOnUse">
<stop stop-color="#FFF77B"/>
<stop offset="1" stop-color="#FFBF42"/>
</linearGradient>
</defs>
</svg>
