<svg width="340" height="198" viewBox="0 0 340 198" fill="none" xmlns="http://www.w3.org/2000/svg">
<rect width="340" height="198" rx="20" fill="url(#paint0_linear_1_109)"/>
<path d="M126.219 134.064H133.555C136.821 134.064 139.351 134.932 141.143 136.668C142.953 138.404 143.859 140.849 143.859 144.004C143.859 147.177 142.953 149.641 141.143 151.396C139.351 153.132 136.821 154 133.555 154H126.219V134.064ZM133.331 151.06C137.923 151.06 140.219 148.708 140.219 144.004C140.219 139.337 137.923 137.004 133.331 137.004H129.831V151.06H133.331ZM154.911 139.524C155.452 139.524 155.919 139.599 156.311 139.748L156.283 142.94C155.685 142.697 155.069 142.576 154.435 142.576C153.24 142.576 152.325 142.921 151.691 143.612C151.075 144.303 150.767 145.217 150.767 146.356V154H147.295V143.864C147.295 142.371 147.22 141.036 147.071 139.86H150.347L150.627 142.352C150.981 141.437 151.541 140.737 152.307 140.252C153.072 139.767 153.94 139.524 154.911 139.524ZM171.51 139.86V154H168.066V151.732C167.637 152.516 167.021 153.132 166.218 153.58C165.415 154.009 164.501 154.224 163.474 154.224C162.242 154.224 161.15 153.925 160.198 153.328C159.246 152.731 158.509 151.881 157.986 150.78C157.463 149.679 157.202 148.4 157.202 146.944C157.202 145.488 157.463 144.2 157.986 143.08C158.527 141.941 159.274 141.064 160.226 140.448C161.178 139.813 162.261 139.496 163.474 139.496C164.501 139.496 165.415 139.72 166.218 140.168C167.021 140.597 167.637 141.204 168.066 141.988V139.86H171.51ZM164.426 151.48C165.583 151.48 166.479 151.079 167.114 150.276C167.749 149.473 168.066 148.344 168.066 146.888C168.066 145.395 167.749 144.247 167.114 143.444C166.479 142.641 165.574 142.24 164.398 142.24C163.241 142.24 162.335 142.66 161.682 143.5C161.047 144.321 160.73 145.469 160.73 146.944C160.73 148.4 161.047 149.52 161.682 150.304C162.335 151.088 163.25 151.48 164.426 151.48ZM192.01 139.496C193.615 139.496 194.81 139.981 195.594 140.952C196.378 141.904 196.77 143.36 196.77 145.32V154H193.27V145.432C193.27 144.312 193.083 143.509 192.71 143.024C192.355 142.52 191.758 142.268 190.918 142.268C189.947 142.268 189.182 142.613 188.622 143.304C188.081 143.976 187.81 144.909 187.81 146.104V154H184.31V145.432C184.31 144.331 184.114 143.528 183.722 143.024C183.349 142.52 182.751 142.268 181.93 142.268C180.959 142.268 180.194 142.613 179.634 143.304C179.074 143.976 178.794 144.909 178.794 146.104V154H175.322V143.864C175.322 142.371 175.247 141.036 175.098 139.86H178.374L178.626 142.1C179.037 141.26 179.625 140.616 180.39 140.168C181.174 139.72 182.07 139.496 183.078 139.496C185.243 139.496 186.653 140.392 187.306 142.184C187.754 141.344 188.389 140.691 189.21 140.224C190.05 139.739 190.983 139.496 192.01 139.496ZM214.03 139.86V154H210.586V151.732C210.156 152.516 209.54 153.132 208.738 153.58C207.935 154.009 207.02 154.224 205.994 154.224C204.762 154.224 203.67 153.925 202.718 153.328C201.766 152.731 201.028 151.881 200.506 150.78C199.983 149.679 199.722 148.4 199.722 146.944C199.722 145.488 199.983 144.2 200.506 143.08C201.047 141.941 201.794 141.064 202.746 140.448C203.698 139.813 204.78 139.496 205.994 139.496C207.02 139.496 207.935 139.72 208.738 140.168C209.54 140.597 210.156 141.204 210.586 141.988V139.86H214.03ZM206.946 151.48C208.103 151.48 208.999 151.079 209.634 150.276C210.268 149.473 210.586 148.344 210.586 146.888C210.586 145.395 210.268 144.247 209.634 143.444C208.999 142.641 208.094 142.24 206.918 142.24C205.76 142.24 204.855 142.66 204.202 143.5C203.567 144.321 203.25 145.469 203.25 146.944C203.25 148.4 203.567 149.52 204.202 150.304C204.855 151.088 205.77 151.48 206.946 151.48Z" fill="white"/>
<g clip-path="url(#clip0_1_109)">
<path d="M204.929 48.1296L203.639 47.8085C189.347 44.2494 174.401 44.2494 160.109 47.8085L158.82 48.1296C155.837 48.8719 153.743 51.5526 153.747 54.6271V63.953C147.088 65.8392 140.669 68.4859 134.616 71.8409L133.447 72.4851C130.757 73.971 129.43 77.1023 130.232 80.0688L134.13 94.6438C137.644 107.725 147.314 118.271 160.041 122.905L164.06 124.378C168.826 126.093 174.155 124.662 177.421 120.79L180.165 117.513C182.719 114.474 184.815 111.079 186.388 107.435C187.232 107.107 188.037 106.683 188.787 106.173L192.29 103.721C203.385 95.9465 209.994 83.2518 210.001 69.7043V54.6271C210.004 51.5533 207.911 48.8725 204.929 48.1296V48.1296ZM178.114 115.791L175.37 119.071C172.828 122.082 168.683 123.195 164.976 121.861L160.958 120.388C149.052 116.053 140.006 106.187 136.718 93.9499L132.819 79.3749C132.339 77.5974 133.133 75.7224 134.745 74.8316L135.913 74.1874C141.564 71.0541 147.545 68.5565 153.747 66.7404V69.7043C153.756 81.7018 158.951 93.1089 167.993 100.993C165.638 101.95 163.151 102.548 160.616 102.764L150.544 103.581C149.935 103.63 149.435 104.085 149.33 104.688C149.226 105.291 149.543 105.888 150.101 106.138L163.453 112.166C166.361 113.483 169.795 112.565 171.657 109.971L174.579 105.907L174.961 106.174C176.988 107.59 179.402 108.348 181.874 108.344C182.275 108.344 182.664 108.293 183.059 108.255C181.714 110.953 180.054 113.483 178.114 115.791V115.791ZM170.355 102.901C170.721 103.169 171.077 103.458 171.453 103.721L172.38 104.369L169.477 108.41C168.358 109.964 166.298 110.514 164.554 109.722L155.932 105.838L160.832 105.437C164.131 105.16 167.355 104.302 170.355 102.901V102.901ZM207.322 69.7043C207.317 82.3781 201.134 94.2527 190.755 101.526L187.252 103.978C184.02 106.23 179.727 106.23 176.496 103.978L172.994 101.526C162.614 94.2533 156.431 82.3781 156.426 69.7043V54.6271C156.426 52.7834 157.68 51.1766 159.469 50.7292L160.758 50.4068C174.624 46.9531 189.124 46.9531 202.989 50.4068L204.279 50.7292C206.067 51.1766 207.322 52.7834 207.322 54.6271V69.7043Z" fill="white"/>
<path d="M176.908 70.1426L178.735 68.1819C174.547 64.0042 167.768 64.0042 163.581 68.1819L163.514 68.2486L165.475 70.0759C166.993 68.5566 169.057 67.7084 171.205 67.7208C173.353 67.7339 175.407 68.6057 176.908 70.1426V70.1426Z" fill="white"/>
<path d="M185.011 68.1819L184.944 68.2486L186.905 70.0759C188.423 68.5566 190.487 67.7084 192.635 67.7208C194.784 67.7339 196.837 68.6057 198.338 70.1426L200.165 68.1819C195.977 64.0042 189.198 64.0042 185.011 68.1819V68.1819Z" fill="white"/>
<path d="M149.098 89.5545C151.192 88.9927 153.424 89.3008 155.287 90.4086L156.536 88.0366C151.411 85.0779 144.858 86.8332 141.899 91.9573L141.852 92.039L143.011 92.7087L144.216 93.2954C145.278 91.4459 147.036 90.0986 149.098 89.5545V89.5545Z" fill="white"/>
<path d="M196.366 82.6109L186.427 84.4192C183.416 84.9685 180.33 84.9685 177.319 84.4192L167.378 82.6109C166.777 82.5017 166.178 82.8123 165.923 83.3669C165.666 83.9215 165.817 84.5788 166.29 84.9653L177.632 94.2422C180.102 96.2526 183.644 96.2526 186.113 94.2422L197.454 84.9627C197.927 84.5761 198.078 83.9189 197.822 83.3643C197.566 82.8097 196.967 82.499 196.366 82.6083V82.6109ZM184.418 92.171C182.936 93.3789 180.81 93.3789 179.328 92.171L171.996 86.1732L176.84 87.0535C180.167 87.6617 183.576 87.6617 186.902 87.0535L191.747 86.1732L184.418 92.171Z" fill="white"/>
</g>
<defs>
<linearGradient id="paint0_linear_1_109" x1="11" y1="1.58908e-05" x2="215.5" y2="160" gradientUnits="userSpaceOnUse">
<stop stop-color="#0FFFDA"/>
<stop offset="1" stop-color="#3CDB77"/>
</linearGradient>
<clipPath id="clip0_1_109">
<rect width="80" height="80" fill="white" transform="translate(130 45)"/>
</clipPath>
</defs>
</svg>
