<svg width="340" height="198" viewBox="0 0 340 198" fill="none" xmlns="http://www.w3.org/2000/svg">
<rect width="340" height="198" rx="20" fill="url(#paint0_linear_1_120)"/>
<path d="M82.6482 136.064H89.9842C93.2509 136.064 95.7802 136.932 97.5722 138.668C99.3829 140.404 100.288 142.849 100.288 146.004C100.288 149.177 99.3829 151.641 97.5722 153.396C95.7802 155.132 93.2509 156 89.9842 156H82.6482V136.064ZM89.7602 153.06C94.3522 153.06 96.6482 150.708 96.6482 146.004C96.6482 141.337 94.3522 139.004 89.7602 139.004H86.2602V153.06H89.7602ZM110.136 156.224C108.699 156.224 107.43 155.925 106.328 155.328C105.246 154.731 104.406 153.881 103.808 152.78C103.23 151.66 102.94 150.353 102.94 148.86C102.94 147.367 103.23 146.069 103.808 144.968C104.406 143.848 105.246 142.989 106.328 142.392C107.43 141.795 108.699 141.496 110.136 141.496C111.555 141.496 112.806 141.795 113.888 142.392C114.971 142.989 115.802 143.848 116.38 144.968C116.978 146.069 117.276 147.367 117.276 148.86C117.276 150.353 116.978 151.66 116.38 152.78C115.802 153.881 114.971 154.731 113.888 155.328C112.806 155.925 111.555 156.224 110.136 156.224ZM110.108 153.48C111.303 153.48 112.208 153.097 112.824 152.332C113.459 151.548 113.776 150.391 113.776 148.86C113.776 147.348 113.459 146.2 112.824 145.416C112.19 144.613 111.294 144.212 110.136 144.212C108.96 144.212 108.055 144.613 107.42 145.416C106.786 146.2 106.468 147.348 106.468 148.86C106.468 150.391 106.776 151.548 107.392 152.332C108.027 153.097 108.932 153.48 110.108 153.48ZM126.707 156.224C125.232 156.224 123.953 155.925 122.871 155.328C121.788 154.731 120.957 153.891 120.379 152.808C119.8 151.707 119.511 150.419 119.511 148.944C119.511 147.469 119.809 146.172 120.407 145.052C121.023 143.932 121.881 143.064 122.983 142.448C124.103 141.813 125.391 141.496 126.847 141.496C127.855 141.496 128.825 141.655 129.759 141.972C130.711 142.289 131.467 142.728 132.027 143.288L131.047 145.752C130.449 145.267 129.815 144.903 129.143 144.66C128.471 144.399 127.808 144.268 127.155 144.268C125.885 144.268 124.896 144.669 124.187 145.472C123.477 146.256 123.123 147.395 123.123 148.888C123.123 150.381 123.468 151.52 124.159 152.304C124.868 153.088 125.867 153.48 127.155 153.48C127.808 153.48 128.471 153.349 129.143 153.088C129.815 152.827 130.449 152.453 131.047 151.968L132.027 154.432C131.429 154.992 130.655 155.431 129.703 155.748C128.751 156.065 127.752 156.224 126.707 156.224ZM147.257 141.86V156H143.841V153.816C143.393 154.6 142.795 155.197 142.049 155.608C141.302 156.019 140.443 156.224 139.473 156.224C136.019 156.224 134.293 154.283 134.293 150.4V141.86H137.765V150.428C137.765 151.455 137.97 152.211 138.381 152.696C138.81 153.181 139.463 153.424 140.341 153.424C141.367 153.424 142.189 153.088 142.805 152.416C143.421 151.744 143.729 150.848 143.729 149.728V141.86H147.257ZM167.744 141.496C169.35 141.496 170.544 141.981 171.328 142.952C172.112 143.904 172.504 145.36 172.504 147.32V156H169.004V147.432C169.004 146.312 168.818 145.509 168.444 145.024C168.09 144.52 167.492 144.268 166.652 144.268C165.682 144.268 164.916 144.613 164.356 145.304C163.815 145.976 163.544 146.909 163.544 148.104V156H160.044V147.432C160.044 146.331 159.848 145.528 159.456 145.024C159.083 144.52 158.486 144.268 157.664 144.268C156.694 144.268 155.928 144.613 155.368 145.304C154.808 145.976 154.528 146.909 154.528 148.104V156H151.056V145.864C151.056 144.371 150.982 143.036 150.832 141.86H154.108L154.36 144.1C154.771 143.26 155.359 142.616 156.124 142.168C156.908 141.72 157.804 141.496 158.812 141.496C160.978 141.496 162.387 142.392 163.04 144.184C163.488 143.344 164.123 142.691 164.944 142.224C165.784 141.739 166.718 141.496 167.744 141.496ZM188.616 149.112H178.872C178.947 150.624 179.32 151.744 179.992 152.472C180.683 153.181 181.7 153.536 183.044 153.536C184.593 153.536 186.031 153.032 187.356 152.024L188.364 154.432C187.692 154.973 186.861 155.412 185.872 155.748C184.901 156.065 183.912 156.224 182.904 156.224C180.589 156.224 178.769 155.571 177.444 154.264C176.119 152.957 175.456 151.165 175.456 148.888C175.456 147.451 175.745 146.172 176.324 145.052C176.903 143.932 177.715 143.064 178.76 142.448C179.805 141.813 180.991 141.496 182.316 141.496C184.257 141.496 185.788 142.131 186.908 143.4C188.047 144.651 188.616 146.377 188.616 148.58V149.112ZM182.4 144.016C181.467 144.016 180.701 144.296 180.104 144.856C179.525 145.397 179.152 146.191 178.984 147.236H185.564C185.452 146.172 185.125 145.369 184.584 144.828C184.061 144.287 183.333 144.016 182.4 144.016ZM199.672 141.496C203.05 141.496 204.74 143.437 204.74 147.32V156H201.24V147.488C201.24 146.368 201.025 145.556 200.596 145.052C200.166 144.529 199.504 144.268 198.608 144.268C197.544 144.268 196.685 144.613 196.032 145.304C195.378 145.976 195.052 146.872 195.052 147.992V156H191.58V145.864C191.58 144.371 191.505 143.036 191.356 141.86H194.632L194.884 144.184C195.369 143.325 196.022 142.663 196.844 142.196C197.684 141.729 198.626 141.496 199.672 141.496ZM212.903 144.492V150.82C212.903 152.481 213.678 153.312 215.227 153.312C215.656 153.312 216.123 153.237 216.627 153.088V155.86C216.011 156.084 215.264 156.196 214.387 156.196C212.782 156.196 211.55 155.748 210.691 154.852C209.832 153.956 209.403 152.668 209.403 150.988V144.492H206.687V141.86H209.403V138.416L212.903 137.24V141.86H216.655V144.492H212.903ZM232.584 141.86V156H229.14V153.732C228.711 154.516 228.095 155.132 227.292 155.58C226.49 156.009 225.575 156.224 224.548 156.224C223.316 156.224 222.224 155.925 221.272 155.328C220.32 154.731 219.583 153.881 219.06 152.78C218.538 151.679 218.276 150.4 218.276 148.944C218.276 147.488 218.538 146.2 219.06 145.08C219.602 143.941 220.348 143.064 221.3 142.448C222.252 141.813 223.335 141.496 224.548 141.496C225.575 141.496 226.49 141.72 227.292 142.168C228.095 142.597 228.711 143.204 229.14 143.988V141.86H232.584ZM225.5 153.48C226.658 153.48 227.554 153.079 228.188 152.276C228.823 151.473 229.14 150.344 229.14 148.888C229.14 147.395 228.823 146.247 228.188 145.444C227.554 144.641 226.648 144.24 225.472 144.24C224.315 144.24 223.41 144.66 222.756 145.5C222.122 146.321 221.804 147.469 221.804 148.944C221.804 150.4 222.122 151.52 222.756 152.304C223.41 153.088 224.324 153.48 225.5 153.48ZM244.012 141.524C244.554 141.524 245.02 141.599 245.412 141.748L245.384 144.94C244.787 144.697 244.171 144.576 243.536 144.576C242.342 144.576 241.427 144.921 240.792 145.612C240.176 146.303 239.868 147.217 239.868 148.356V156H236.396V145.864C236.396 144.371 236.322 143.036 236.172 141.86H239.448L239.728 144.352C240.083 143.437 240.643 142.737 241.408 142.252C242.174 141.767 243.042 141.524 244.012 141.524ZM261.593 141.86L255.013 156.952C254.266 158.707 253.314 159.985 252.157 160.788C250.999 161.591 249.571 162.123 247.873 162.384L247.089 159.696C248.414 159.397 249.403 159.015 250.057 158.548C250.729 158.1 251.27 157.428 251.681 156.532L252.129 155.496L246.249 141.86H249.917L253.977 152.024L258.121 141.86H261.593Z" fill="white"/>
<path d="M153.622 101.417H155.889C156.138 101.417 156.376 101.318 156.552 101.143C156.728 100.967 156.827 100.728 156.827 100.48C156.827 100.231 156.728 99.9926 156.552 99.8167C156.376 99.6409 156.138 99.5421 155.889 99.5421H153.622C153.373 99.5421 153.135 99.6409 152.959 99.8167C152.783 99.9926 152.684 100.231 152.684 100.48C152.684 100.728 152.783 100.967 152.959 101.143C153.135 101.318 153.373 101.417 153.622 101.417Z" fill="white"/>
<path d="M164.358 103.791H167.258C167.506 103.791 167.745 103.692 167.921 103.516C168.097 103.34 168.195 103.102 168.195 102.853C168.195 102.604 168.097 102.366 167.921 102.19C167.745 102.014 167.506 101.916 167.258 101.916H164.358C164.109 101.916 163.871 102.014 163.695 102.19C163.519 102.366 163.42 102.604 163.42 102.853C163.42 103.102 163.519 103.34 163.695 103.516C163.871 103.692 164.109 103.791 164.358 103.791Z" fill="white"/>
<path d="M180.789 108.694H183.214C183.463 108.694 183.701 108.595 183.877 108.419C184.053 108.243 184.152 108.005 184.152 107.756C184.152 107.508 184.053 107.269 183.877 107.093C183.701 106.917 183.463 106.819 183.214 106.819H180.789C180.54 106.819 180.302 106.917 180.126 107.093C179.95 107.269 179.852 107.508 179.852 107.756C179.852 108.005 179.95 108.243 180.126 108.419C180.302 108.595 180.54 108.694 180.789 108.694Z" fill="white"/>
<path d="M155.848 108.231C155.848 108.48 155.947 108.718 156.123 108.894C156.299 109.07 156.537 109.169 156.786 109.169H159.053C159.302 109.169 159.54 109.07 159.716 108.894C159.892 108.718 159.991 108.48 159.991 108.231C159.991 107.983 159.892 107.744 159.716 107.568C159.54 107.393 159.302 107.294 159.053 107.294H156.786C156.537 107.294 156.299 107.393 156.123 107.568C155.947 107.744 155.848 107.983 155.848 108.231Z" fill="white"/>
<path d="M194.088 110.287C194.088 110.536 194.186 110.775 194.362 110.95C194.538 111.126 194.776 111.225 195.025 111.225H197.767C198.016 111.225 198.254 111.126 198.43 110.95C198.606 110.775 198.705 110.536 198.705 110.287C198.705 110.039 198.606 109.8 198.43 109.625C198.254 109.449 198.016 109.35 197.767 109.35H195.025C194.776 109.35 194.538 109.449 194.362 109.625C194.186 109.8 194.088 110.039 194.088 110.287Z" fill="white"/>
<path d="M144.184 109.35H141.442C141.194 109.35 140.955 109.449 140.779 109.625C140.603 109.8 140.505 110.039 140.505 110.287C140.505 110.536 140.603 110.775 140.779 110.95C140.955 111.126 141.194 111.225 141.442 111.225H144.184C144.433 111.225 144.671 111.126 144.847 110.95C145.023 110.775 145.122 110.536 145.122 110.287C145.122 110.039 145.023 109.8 144.847 109.625C144.671 109.449 144.433 109.35 144.184 109.35Z" fill="white"/>
<path d="M174.323 101.708H176.591C176.839 101.708 177.078 101.609 177.254 101.433C177.429 101.257 177.528 101.019 177.528 100.77C177.528 100.522 177.429 100.283 177.254 100.107C177.078 99.9316 176.839 99.8329 176.591 99.8329H174.323C174.075 99.8329 173.836 99.9316 173.661 100.107C173.485 100.283 173.386 100.522 173.386 100.77C173.386 101.019 173.485 101.257 173.661 101.433C173.836 101.609 174.075 101.708 174.323 101.708Z" fill="white"/>
<path d="M166.672 88.6922H173.328C173.577 88.6922 173.815 88.5935 173.991 88.4176C174.167 88.2418 174.266 88.0034 174.266 87.7547V83.2797C174.266 82.1484 173.816 81.0634 173.016 80.2635C172.216 79.4635 171.131 79.0141 170 79.0141C168.869 79.0141 167.784 79.4635 166.984 80.2635C166.184 81.0634 165.734 82.1484 165.734 83.2797V87.7547C165.734 88.0034 165.833 88.2418 166.009 88.4176C166.185 88.5935 166.423 88.6922 166.672 88.6922ZM167.609 83.2797C167.609 82.6457 167.861 82.0376 168.31 81.5893C168.758 81.141 169.366 80.8891 170 80.8891C170.634 80.8891 171.242 81.141 171.69 81.5893C172.139 82.0376 172.391 82.6457 172.391 83.2797V86.8172H167.609V83.2797Z" fill="white"/>
<path d="M162.677 76.8921C162.428 76.8921 162.19 76.9909 162.014 77.1667C161.838 77.3425 161.739 77.581 161.739 77.8296V78.5499C161.739 78.7986 161.838 79.037 162.014 79.2129C162.19 79.3887 162.428 79.4874 162.677 79.4874C162.925 79.4874 163.164 79.3887 163.34 79.2129C163.515 79.037 163.614 78.7986 163.614 78.5499V77.8296C163.614 77.581 163.515 77.3425 163.34 77.1667C163.164 76.9909 162.925 76.8921 162.677 76.8921Z" fill="white"/>
<path d="M162.677 80.4515C162.428 80.4515 162.19 80.5503 162.014 80.7261C161.838 80.9019 161.739 81.1403 161.739 81.389V87.2484C161.739 87.497 161.838 87.7354 162.014 87.9113C162.19 88.0871 162.428 88.1859 162.677 88.1859C162.925 88.1859 163.164 88.0871 163.34 87.9113C163.515 87.7354 163.614 87.497 163.614 87.2484V81.389C163.614 81.1403 163.515 80.9019 163.34 80.7261C163.164 80.5503 162.925 80.4515 162.677 80.4515Z" fill="white"/>
<path d="M195.541 95.7344C195.541 95.4858 195.442 95.2473 195.266 95.0715C195.09 94.8957 194.852 94.7969 194.603 94.7969H192.02C191.772 94.7969 191.533 94.8957 191.357 95.0715C191.182 95.2473 191.083 95.4858 191.083 95.7344C191.083 95.9831 191.182 96.2215 191.357 96.3973C191.533 96.5732 191.772 96.6719 192.02 96.6719H194.603C194.852 96.6719 195.09 96.5732 195.266 96.3973C195.442 96.2215 195.541 95.9831 195.541 95.7344Z" fill="white"/>
<path d="M149.63 89.6969C149.63 89.4483 149.531 89.2098 149.355 89.034C149.179 88.8582 148.941 88.7594 148.692 88.7594H146.108C145.859 88.7594 145.621 88.8582 145.445 89.034C145.269 89.2098 145.17 89.4483 145.17 89.6969C145.17 89.9455 145.269 90.184 145.445 90.3598C145.621 90.5356 145.859 90.6344 146.108 90.6344H148.692C148.941 90.6344 149.179 90.5356 149.355 90.3598C149.531 90.184 149.63 89.9455 149.63 89.6969Z" fill="white"/>
<path d="M202.553 119.333V86.3996C203.209 86.3818 203.832 86.1091 204.289 85.6394C204.747 85.1696 205.004 84.5399 205.005 83.884V75.3437C205.005 75.0951 204.906 74.8566 204.73 74.6808C204.554 74.505 204.316 74.4062 204.067 74.4062H200.528C200.279 74.4062 200.041 74.505 199.865 74.6808C199.689 74.8566 199.591 75.0951 199.591 75.3437V77.2531H197.68V75.3437C197.68 75.0951 197.581 74.8566 197.405 74.6808C197.229 74.505 196.991 74.4062 196.742 74.4062H193.203C192.954 74.4062 192.716 74.505 192.54 74.6808C192.364 74.8566 192.266 75.0951 192.266 75.3437V77.2531H190.355V75.3437C190.355 75.0951 190.256 74.8566 190.08 74.6808C189.904 74.505 189.666 74.4062 189.417 74.4062H185.878C185.629 74.4062 185.391 74.505 185.215 74.6808C185.039 74.8566 184.941 75.0951 184.941 75.3437V83.8843C184.942 84.5402 185.198 85.1699 185.656 85.6397C186.114 86.1094 186.737 86.3821 187.392 86.4V91.8046H183.509C183.261 91.8046 183.022 91.9034 182.846 92.0792C182.671 92.255 182.572 92.4935 182.572 92.7421V94.6515H181.752V74.6203H183.341C183.523 74.6202 183.701 74.567 183.854 74.4671C184.006 74.3672 184.126 74.225 184.199 74.0579C184.272 73.8908 184.295 73.7061 184.265 73.5263C184.234 73.3465 184.152 73.1795 184.028 73.0457L170.937 58.9121V56.65L177.413 53.8315C177.578 53.7596 177.719 53.6415 177.819 53.4914C177.919 53.3413 177.974 53.1656 177.976 52.9853C177.979 52.8051 177.929 52.6279 177.834 52.475C177.738 52.3221 177.601 52.2 177.437 52.1234L170.824 49.0173C170.725 48.8339 170.567 48.6888 170.376 48.6051C170.185 48.5214 169.972 48.5037 169.77 48.555C169.567 48.6063 169.388 48.7235 169.26 48.8881C169.132 49.0528 169.062 49.2554 169.062 49.464V58.9121L155.972 73.0457C155.848 73.1795 155.765 73.3465 155.735 73.5263C155.705 73.7061 155.727 73.8908 155.8 74.0579C155.873 74.225 155.993 74.3672 156.146 74.4671C156.298 74.567 156.477 74.6202 156.659 74.6203H158.248V94.6515H157.428V92.7421C157.428 92.4935 157.329 92.255 157.153 92.0792C156.977 91.9034 156.739 91.8046 156.49 91.8046H152.608V86.3996C153.263 86.3818 153.886 86.1091 154.344 85.6394C154.802 85.1696 155.058 84.5399 155.059 83.884V75.3437C155.059 75.0951 154.961 74.8566 154.785 74.6808C154.609 74.505 154.371 74.4062 154.122 74.4062H150.583C150.334 74.4062 150.096 74.505 149.92 74.6808C149.744 74.8566 149.645 75.0951 149.645 75.3437V77.2531H147.734V75.3437C147.734 75.0951 147.636 74.8566 147.46 74.6808C147.284 74.505 147.046 74.4062 146.797 74.4062H143.258C143.009 74.4062 142.771 74.505 142.595 74.6808C142.419 74.8566 142.32 75.0951 142.32 75.3437V77.2531H140.409V75.3437C140.409 75.0951 140.311 74.8566 140.135 74.6808C139.959 74.505 139.721 74.4062 139.472 74.4062H135.933C135.684 74.4062 135.446 74.505 135.27 74.6808C135.094 74.8566 134.995 75.0951 134.995 75.3437V83.8843C134.996 84.5402 135.253 85.1699 135.711 85.6397C136.168 86.1094 136.791 86.3821 137.447 86.4V119.333C136.278 119.382 135.172 119.881 134.362 120.725C133.552 121.569 133.098 122.694 133.097 123.864V124.536C133.097 124.785 133.196 125.023 133.371 125.199C133.547 125.375 133.786 125.473 134.034 125.473H205.966C206.214 125.473 206.453 125.375 206.629 125.199C206.804 125.023 206.903 124.785 206.903 124.536V123.864C206.902 122.694 206.448 121.569 205.638 120.725C204.827 119.881 203.722 119.382 202.553 119.333ZM170.937 51.1418L174.765 52.9387L170.937 54.605V51.1418ZM186.816 83.8843V76.2812H188.48V78.1906C188.48 78.4392 188.578 78.6777 188.754 78.8535C188.93 79.0293 189.169 79.1281 189.417 79.1281H193.203C193.452 79.1281 193.69 79.0293 193.866 78.8535C194.042 78.6777 194.141 78.4392 194.141 78.1906V76.2812H195.805V78.1906C195.805 78.4392 195.903 78.6777 196.079 78.8535C196.255 79.0293 196.494 79.1281 196.742 79.1281H200.528C200.777 79.1281 201.015 79.0293 201.191 78.8535C201.367 78.6777 201.466 78.4392 201.466 78.1906V76.2812H203.13V83.8843C203.13 84.055 203.062 84.2187 202.941 84.3394C202.82 84.46 202.657 84.5279 202.486 84.5281H187.459C187.289 84.5279 187.125 84.46 187.004 84.3394C186.884 84.2187 186.816 84.055 186.816 83.8843ZM170 60.6592L181.194 72.7453H166.094C165.845 72.7453 165.607 72.844 165.431 73.0199C165.255 73.1957 165.156 73.4341 165.156 73.6828C165.156 73.9314 165.255 74.1699 165.431 74.3457C165.607 74.5215 165.845 74.6203 166.094 74.6203H179.877V94.6515H179.23V92.7421C179.23 92.4935 179.131 92.255 178.955 92.0792C178.779 91.9034 178.541 91.8046 178.292 91.8046H172.452C172.203 91.8046 171.964 91.9034 171.789 92.0792C171.613 92.255 171.514 92.4935 171.514 92.7421V94.6515H168.486V92.7421C168.486 92.4935 168.387 92.255 168.211 92.0792C168.036 91.9034 167.797 91.8046 167.548 91.8046H161.708C161.459 91.8046 161.221 91.9034 161.045 92.0792C160.869 92.255 160.77 92.4935 160.77 92.7421V94.6515H160.123V74.6203H162.656C162.905 74.6203 163.143 74.5215 163.319 74.3457C163.495 74.1699 163.594 73.9314 163.594 73.6828C163.594 73.4341 163.495 73.1957 163.319 73.0199C163.143 72.844 162.905 72.7453 162.656 72.7453H158.806L170 60.6592ZM155.553 93.6796V95.589C155.553 95.8377 155.652 96.0761 155.828 96.2519C156.004 96.4277 156.242 96.5265 156.491 96.5265H161.708C161.956 96.5265 162.195 96.4277 162.371 96.2519C162.547 96.0761 162.645 95.8377 162.645 95.589V93.6796H166.611V95.589C166.611 95.8377 166.71 96.0761 166.886 96.2519C167.061 96.4277 167.3 96.5265 167.548 96.5265H172.452C172.7 96.5265 172.939 96.4277 173.114 96.2519C173.29 96.0761 173.389 95.8377 173.389 95.589V93.6796H177.355V95.589C177.355 95.8377 177.453 96.0761 177.629 96.2519C177.805 96.4277 178.044 96.5265 178.292 96.5265H183.509C183.758 96.5265 183.996 96.4277 184.172 96.2519C184.348 96.0761 184.447 95.8377 184.447 95.589V93.6796H188.103V98.5937H186.325C186.076 98.5937 185.838 98.6925 185.662 98.8683C185.486 99.0441 185.387 99.2826 185.387 99.5312C185.387 99.7799 185.486 100.018 185.662 100.194C185.838 100.37 186.076 100.469 186.325 100.469H188.103V108.178C188.103 108.427 188.202 108.665 188.378 108.841C188.554 109.017 188.792 109.116 189.041 109.116C189.289 109.116 189.528 109.017 189.704 108.841C189.879 108.665 189.978 108.427 189.978 108.178V104.106H192.389C192.638 104.106 192.876 104.007 193.052 103.832C193.228 103.656 193.327 103.417 193.327 103.169C193.327 102.92 193.228 102.682 193.052 102.506C192.876 102.33 192.638 102.231 192.389 102.231H189.978V92.7421C189.978 92.5331 189.908 92.3301 189.779 92.1654C189.65 92.0008 189.47 91.8839 189.267 91.8334V86.4031H200.678V87.9953H198.198C197.95 87.9953 197.711 88.094 197.536 88.2699C197.36 88.4457 197.261 88.6841 197.261 88.9328C197.261 89.1814 197.36 89.4199 197.536 89.5957C197.711 89.7715 197.95 89.8703 198.198 89.8703H200.678V116.784H198.347C198.098 116.784 197.86 116.883 197.684 117.059C197.508 117.235 197.409 117.473 197.409 117.722C197.409 117.97 197.508 118.209 197.684 118.385C197.86 118.561 198.098 118.659 198.347 118.659H200.678V119.328H189.978V111.453C189.978 111.204 189.879 110.966 189.704 110.79C189.528 110.614 189.289 110.516 189.041 110.516C188.792 110.516 188.554 110.614 188.378 110.79C188.202 110.966 188.103 111.204 188.103 111.453V114.886H186.167C185.919 114.886 185.68 114.985 185.504 115.16C185.328 115.336 185.23 115.575 185.23 115.823C185.23 116.072 185.328 116.31 185.504 116.486C185.68 116.662 185.919 116.761 186.167 116.761H188.103V119.328H176.236V114.836H180.222C180.471 114.836 180.709 114.737 180.885 114.561C181.061 114.385 181.159 114.147 181.159 113.898C181.159 113.65 181.061 113.411 180.885 113.235C180.709 113.06 180.471 112.961 180.222 112.961H176.23C176.197 112.065 175.941 111.191 175.486 110.419C175.03 109.647 174.39 109.001 173.621 108.539L170.481 106.664C170.335 106.577 170.169 106.531 170 106.531C169.831 106.531 169.665 106.577 169.519 106.664L166.379 108.539C165.583 109.017 164.924 109.692 164.466 110.499C164.008 111.307 163.766 112.219 163.764 113.147V116.152H161.212C160.964 116.152 160.725 116.25 160.55 116.426C160.374 116.602 160.275 116.84 160.275 117.089C160.275 117.338 160.374 117.576 160.55 117.752C160.725 117.928 160.964 118.027 161.212 118.027H163.764V119.328H151.897V113.597H153.675C153.924 113.597 154.162 113.498 154.338 113.322C154.514 113.146 154.612 112.908 154.612 112.659C154.612 112.411 154.514 112.172 154.338 111.996C154.162 111.821 153.924 111.722 153.675 111.722H151.897V93.6796H155.553ZM174.361 113.147V119.328H165.639V113.147C165.64 112.543 165.798 111.95 166.096 111.424C166.394 110.899 166.822 110.46 167.34 110.149L170 108.561L172.66 110.149C173.178 110.46 173.607 110.899 173.905 111.424C174.202 111.95 174.36 112.543 174.361 113.147ZM136.87 83.8843V76.2812H138.534V78.1906C138.534 78.4392 138.633 78.6777 138.809 78.8535C138.985 79.0293 139.223 79.1281 139.472 79.1281H143.258C143.506 79.1281 143.745 79.0293 143.921 78.8535C144.097 78.6777 144.195 78.4392 144.195 78.1906V76.2812H145.859V78.1906C145.859 78.4392 145.958 78.6777 146.134 78.8535C146.31 79.0293 146.548 79.1281 146.797 79.1281H150.583C150.831 79.1281 151.07 79.0293 151.246 78.8535C151.422 78.6777 151.52 78.4392 151.52 78.1906V76.2812H153.184V83.8843C153.184 84.055 153.116 84.2187 152.996 84.3394C152.875 84.46 152.711 84.5279 152.541 84.5281H137.514C137.343 84.5279 137.18 84.46 137.059 84.3394C136.938 84.2187 136.87 84.055 136.87 83.8843ZM148.244 104.264H150.022V112.441C149.986 112.584 149.986 112.734 150.022 112.877V116.152H147.611C147.362 116.152 147.124 116.25 146.948 116.426C146.772 116.602 146.673 116.84 146.673 117.089C146.673 117.338 146.772 117.576 146.948 117.752C147.124 117.928 147.362 118.027 147.611 118.027H150.022V119.328H139.322V97.1468H141.795C142.044 97.1468 142.282 97.0481 142.458 96.8722C142.634 96.6964 142.733 96.458 142.733 96.2093C142.733 95.9607 142.634 95.7222 142.458 95.5464C142.282 95.3706 142.044 95.2718 141.795 95.2718H139.322V86.4031H150.733V91.8334C150.53 91.8839 150.35 92.0008 150.221 92.1654C150.092 92.3301 150.022 92.5331 150.022 92.7421V102.389H148.244C147.995 102.389 147.757 102.488 147.581 102.664C147.405 102.839 147.306 103.078 147.306 103.327C147.306 103.575 147.405 103.814 147.581 103.989C147.757 104.165 147.995 104.264 148.244 104.264ZM134.984 123.598C135.051 122.942 135.359 122.334 135.848 121.891C136.337 121.449 136.973 121.204 137.633 121.203H202.367C203.027 121.204 203.663 121.449 204.152 121.891C204.641 122.334 204.949 122.942 205.016 123.598H134.984Z" fill="white"/>
<defs>
<linearGradient id="paint0_linear_1_120" x1="11" y1="1.37127e-05" x2="340" y2="198" gradientUnits="userSpaceOnUse">
<stop stop-color="#1FA2FF"/>
<stop offset="0.0001" stop-color="#1FA2FF"/>
<stop offset="0.973958" stop-color="#1F535C"/>
</linearGradient>
</defs>
</svg>
