<svg width="340" height="198" viewBox="0 0 340 198" fill="none" xmlns="http://www.w3.org/2000/svg">
<rect width="340" height="198" rx="20" fill="url(#paint0_linear_1_138)"/>
<path d="M142.642 151.324H132.898L130.882 156H127.242L136.258 136.064H139.198L148.242 156H144.63L142.642 151.324ZM141.438 148.524L137.77 139.984L134.102 148.524H141.438ZM156.558 156.224C155.084 156.224 153.805 155.925 152.722 155.328C151.64 154.731 150.809 153.891 150.23 152.808C149.652 151.707 149.362 150.419 149.362 148.944C149.362 147.469 149.661 146.172 150.258 145.052C150.874 143.932 151.733 143.064 152.834 142.448C153.954 141.813 155.242 141.496 156.698 141.496C157.706 141.496 158.677 141.655 159.61 141.972C160.562 142.289 161.318 142.728 161.878 143.288L160.898 145.752C160.301 145.267 159.666 144.903 158.994 144.66C158.322 144.399 157.66 144.268 157.006 144.268C155.737 144.268 154.748 144.669 154.038 145.472C153.329 146.256 152.974 147.395 152.974 148.888C152.974 150.381 153.32 151.52 154.01 152.304C154.72 153.088 155.718 153.48 157.006 153.48C157.66 153.48 158.322 153.349 158.994 153.088C159.666 152.827 160.301 152.453 160.898 151.968L161.878 154.432C161.281 154.992 160.506 155.431 159.554 155.748C158.602 156.065 157.604 156.224 156.558 156.224ZM168.762 144.492V150.82C168.762 152.481 169.537 153.312 171.086 153.312C171.516 153.312 171.982 153.237 172.486 153.088V155.86C171.87 156.084 171.124 156.196 170.246 156.196C168.641 156.196 167.409 155.748 166.55 154.852C165.692 153.956 165.262 152.668 165.262 150.988V144.492H162.546V141.86H165.262V138.416L168.762 137.24V141.86H172.514V144.492H168.762ZM174.92 141.86H178.392V156H174.92V141.86ZM178.588 135.448V138.892H174.696V135.448H178.588ZM188.632 156.224C187.195 156.224 185.926 155.925 184.824 155.328C183.742 154.731 182.902 153.881 182.304 152.78C181.726 151.66 181.436 150.353 181.436 148.86C181.436 147.367 181.726 146.069 182.304 144.968C182.902 143.848 183.742 142.989 184.824 142.392C185.926 141.795 187.195 141.496 188.632 141.496C190.051 141.496 191.302 141.795 192.384 142.392C193.467 142.989 194.298 143.848 194.876 144.968C195.474 146.069 195.772 147.367 195.772 148.86C195.772 150.353 195.474 151.66 194.876 152.78C194.298 153.881 193.467 154.731 192.384 155.328C191.302 155.925 190.051 156.224 188.632 156.224ZM188.604 153.48C189.799 153.48 190.704 153.097 191.32 152.332C191.955 151.548 192.272 150.391 192.272 148.86C192.272 147.348 191.955 146.2 191.32 145.416C190.686 144.613 189.79 144.212 188.632 144.212C187.456 144.212 186.551 144.613 185.916 145.416C185.282 146.2 184.964 147.348 184.964 148.86C184.964 150.391 185.272 151.548 185.888 152.332C186.523 153.097 187.428 153.48 188.604 153.48ZM206.883 141.496C210.261 141.496 211.951 143.437 211.951 147.32V156H208.451V147.488C208.451 146.368 208.236 145.556 207.807 145.052C207.377 144.529 206.715 144.268 205.819 144.268C204.755 144.268 203.896 144.613 203.243 145.304C202.589 145.976 202.263 146.872 202.263 147.992V156H198.791V145.864C198.791 144.371 198.716 143.036 198.567 141.86H201.843L202.095 144.184C202.58 143.325 203.233 142.663 204.055 142.196C204.895 141.729 205.837 141.496 206.883 141.496Z" fill="white"/>
<path d="M140.017 97.0132L141.267 104.513C141.32 104.83 141.493 105.115 141.75 105.308L151.438 112.573L152.564 115.953C152.647 116.202 152.806 116.418 153.019 116.572C153.232 116.725 153.488 116.808 153.75 116.808C153.819 116.808 153.888 116.802 153.956 116.791L154.555 116.691L153.815 118.912C153.772 119.04 153.75 119.173 153.75 119.308V123.058C153.75 123.389 153.882 123.707 154.116 123.942C154.351 124.176 154.669 124.308 155 124.308H185C185.19 124.308 185.378 124.264 185.549 124.181C185.719 124.097 185.869 123.976 185.986 123.826C186.103 123.676 186.184 123.502 186.223 123.315C186.262 123.129 186.259 122.937 186.212 122.753L185.459 119.76L193.13 124.143C193.405 124.3 193.73 124.347 194.038 124.274C194.346 124.202 194.615 124.015 194.791 123.751C194.791 123.751 197.392 119.817 197.404 119.787C197.409 119.775 198.713 114.611 198.713 114.611C198.782 114.335 198.755 114.044 198.636 113.785C198.517 113.527 198.314 113.317 198.06 113.19L195.56 111.94C195.325 111.822 195.059 111.782 194.8 111.824C194.541 111.866 194.302 111.989 194.117 112.174C194.117 112.174 191.389 114.961 191.329 115.126L188.289 113.427L193.435 107.638C193.61 107.442 193.718 107.194 193.744 106.932L194.994 94.4324C195.007 94.309 195.001 94.1845 194.976 94.0628L193.02 84.2786C192.634 82.3483 191.707 80.5673 190.349 79.1427C188.991 77.718 187.256 76.7083 185.346 76.231L182.852 75.6074L175.887 73.2858L175 71.5125V69.6202L175.75 69.0577C175.905 68.9413 176.031 68.7903 176.118 68.6167C176.205 68.4431 176.25 68.2517 176.25 68.0577V65.5577C176.582 65.5577 176.899 65.426 177.134 65.1916C177.368 64.9571 177.5 64.6392 177.5 64.3077V59.5039C178.329 56.9527 178.75 54.287 178.75 51.6046V50.5577C178.75 50.2262 178.618 49.9082 178.384 49.6738C178.149 49.4394 177.832 49.3077 177.5 49.3077H171.036C168.511 49.3007 166.083 50.276 164.266 52.0272L162.236 53.0421C161.189 53.5658 160.308 54.3709 159.692 55.3672C159.076 56.3635 158.75 57.5115 158.75 58.6827C158.75 59.8539 159.076 61.0019 159.692 61.9982C160.308 62.9944 161.189 63.7995 162.236 64.3233L162.51 64.4603C162.548 64.763 162.694 65.0416 162.922 65.2437C163.151 65.4458 163.445 65.5575 163.75 65.5577V68.0577C163.75 68.2517 163.795 68.4431 163.882 68.6167C163.969 68.7903 164.095 68.9413 164.25 69.0577L165 69.6202V71.5125L164.095 73.3233L158.509 75.5577H157.691C154.838 75.5577 152.078 76.5696 149.902 78.4134C147.725 80.2571 146.274 82.8132 145.805 85.6269L145.07 90.0311L140.274 96.0264C140.164 96.1636 140.085 96.3224 140.04 96.4924C139.996 96.6624 139.988 96.8399 140.017 97.0132ZM156.25 119.511L157.345 116.226L161.455 115.541C161.68 115.504 161.889 115.406 162.062 115.258C162.235 115.111 162.364 114.919 162.436 114.703L163.267 112.211L172.448 115.883L171.46 117.364C171.286 117.624 171.217 117.94 171.265 118.249C171.312 118.558 171.475 118.838 171.719 119.034L175.187 121.808H156.25V119.511ZM157.884 92.4574L158.419 96.735L155.727 95.2308L157.884 92.4574ZM168.25 83.3077C168.756 83.6841 169.37 83.8874 170 83.8874C170.631 83.8874 171.244 83.6841 171.75 83.3077C174.103 81.5336 175.671 78.9113 176.12 75.9986L176.244 76.0399C176.188 80.0726 175.365 84.0577 173.818 87.7825C173.199 89.2778 172.468 90.724 171.63 92.1086L171.25 92.0327V88.0577C171.25 87.7262 171.118 87.4082 170.884 87.1738C170.649 86.9394 170.332 86.8077 170 86.8077C169.669 86.8077 169.351 86.9394 169.116 87.1738C168.882 87.4082 168.75 87.7262 168.75 88.0577V92.0817L165.146 92.9828L160.559 90.6897C160.436 90.6284 160.304 90.588 160.168 90.5699L160 89.2296V77.6539L163.895 76.096C164.364 78.9709 165.924 81.5541 168.25 83.3077ZM180.223 119.817L178.657 121.383L174.176 117.798L175.802 115.358L177.002 114.958C177.013 114.954 177.023 114.95 177.034 114.945L181.411 117.447C181.402 117.464 181.391 117.481 181.382 117.499L180.223 119.817ZM171.784 104.204L174.792 100.895C177.409 98.0177 179.52 94.7184 181.035 91.1366L178.798 98.9647C178.766 99.0763 178.75 99.1917 178.75 99.3077V108.096L171.784 104.204ZM181.25 99.4827L182.819 93.991L183.75 95.8528V103.907L181.25 107.407V99.4827ZM181.25 77.7241C181.256 85.6722 178.293 93.336 172.942 99.213L169.544 102.952L167.029 101.546L168.661 99.9144C174.802 93.7754 178.396 85.543 178.724 76.8663L181.25 77.7086V77.7241ZM161.127 98.2483L160.53 93.4702L164.441 95.4257C164.708 95.5591 165.014 95.5927 165.303 95.5203L170.03 94.3385L170.132 94.3589C169.153 95.7037 168.07 96.97 166.893 98.1464L164.761 100.279L161.127 98.2483ZM154.174 97.2267L166.531 104.132L165.21 106.114C165.118 106.251 165.054 106.404 165.021 106.566C164.988 106.727 164.988 106.893 165.02 107.055C165.052 107.217 165.115 107.37 165.207 107.507C165.298 107.644 165.416 107.762 165.553 107.853C165.69 107.945 165.844 108.008 166.005 108.04C166.167 108.072 166.333 108.071 166.495 108.038C166.656 108.006 166.809 107.941 166.946 107.849C167.082 107.757 167.199 107.639 167.29 107.501L168.72 105.355L170.478 106.338L168.96 108.614C168.868 108.751 168.804 108.904 168.771 109.066C168.738 109.227 168.738 109.393 168.77 109.555C168.802 109.717 168.865 109.87 168.957 110.007C169.048 110.144 169.166 110.262 169.303 110.353C169.44 110.445 169.594 110.508 169.755 110.54C169.917 110.572 170.083 110.571 170.245 110.538C170.406 110.506 170.559 110.441 170.696 110.349C170.832 110.257 170.949 110.139 171.04 110.001L172.667 107.561L176.997 109.98L175.157 112.938L174.605 113.122C174.341 113.21 174.114 113.383 173.96 113.614L173.865 113.757L163.203 109.492L159.635 105.924C159.518 105.808 159.381 105.716 159.229 105.653C159.077 105.59 158.914 105.558 158.75 105.558H155.601L151.592 100.547L154.174 97.2267ZM181.768 121.808L182.134 121.442C182.229 121.347 182.308 121.237 182.368 121.117L182.937 119.98L183.396 121.808H181.768ZM193.357 121.394L178.222 112.745L179.182 111.202L194.46 119.74L193.357 121.394ZM195.247 114.579L196.044 114.977L195.433 117.42L193.491 116.334L195.247 114.579ZM188.408 80.733C189.511 81.8346 190.263 83.2392 190.567 84.7686L192.488 94.3702L191.297 106.28L186.054 112.178L182.381 110.125L186.017 105.034C186.169 104.822 186.25 104.568 186.25 104.308V95.5577C186.25 95.3636 186.205 95.1722 186.118 94.9986L183.75 90.2625V78.4086L184.739 78.6558C186.127 79.0031 187.396 79.721 188.408 80.733ZM165 63.0577V60.5577H175V63.0577H172.795L170.559 61.9397C170.386 61.8529 170.194 61.8077 170 61.8077C169.806 61.8077 169.615 61.8529 169.441 61.9397L167.205 63.0577H165ZM161.25 58.6827C161.248 57.9753 161.443 57.2814 161.815 56.6796C162.187 56.0779 162.72 55.5924 163.354 55.2782L165.559 54.1757C165.679 54.1156 165.789 54.0364 165.884 53.9413C166.559 53.2627 167.362 52.7247 168.246 52.3585C169.13 51.9922 170.078 51.805 171.036 51.8077H176.249C176.231 53.9233 175.922 56.0263 175.331 58.0577H163.75C163.419 58.0577 163.101 58.1894 162.866 58.4238C162.632 58.6582 162.5 58.9762 162.5 59.3077V61.5046C162.105 61.1485 161.79 60.7131 161.574 60.2269C161.359 59.7407 161.248 59.2145 161.25 58.6827ZM167.5 65.5577C167.694 65.5577 167.886 65.5125 168.059 65.4257L170 64.4552L171.941 65.4257C172.115 65.5125 172.306 65.5577 172.5 65.5577H173.75V67.4327L171.25 69.3077H168.75L166.25 67.4327V65.5577H167.5ZM167.583 71.5577C167.8 71.72 168.063 71.8077 168.333 71.8077H171.667C171.937 71.8077 172.201 71.72 172.417 71.5577L172.5 71.4952V71.8077C172.5 72.0018 172.545 72.1932 172.632 72.3667L173.741 74.5855C173.697 75.8954 173.361 77.1788 172.757 78.3419C172.153 79.5049 171.296 80.5183 170.25 81.3077C170.178 81.3614 170.09 81.3904 170 81.3904C169.91 81.3904 169.822 81.3614 169.75 81.3077C168.704 80.5184 167.847 79.5052 167.243 78.3423C166.639 77.1793 166.303 75.896 166.258 74.5863L167.368 72.3675C167.455 72.1938 167.5 72.0021 167.5 71.8077V71.4952L167.583 71.5577ZM147.226 91.3389C147.36 91.1723 147.448 90.9742 147.483 90.7636L148.27 86.0385C148.637 83.8408 149.76 81.8402 151.445 80.3831C153.131 78.9261 155.272 78.1041 157.5 78.0596V88.8788L153.163 94.455C153.008 94.5372 152.872 94.6514 152.764 94.7901C152.656 94.9288 152.579 95.0888 152.538 95.2596L149.014 99.7908C148.842 100.013 148.749 100.286 148.751 100.567C148.753 100.848 148.849 101.12 149.025 101.339L154.025 107.589C154.142 107.735 154.29 107.853 154.459 107.934C154.628 108.015 154.813 108.058 155 108.058H158.232L161.07 110.895L160.302 113.198L154.598 114.149L153.686 111.412C153.605 111.171 153.453 110.96 153.25 110.808L143.651 103.608L142.575 97.1527L147.226 91.3389Z" fill="white"/>
<defs>
<linearGradient id="paint0_linear_1_138" x1="11" y1="1.37127e-05" x2="340" y2="198" gradientUnits="userSpaceOnUse">
<stop stop-color="#FD093F"/>
<stop offset="0.0001" stop-color="#FB1378"/>
<stop offset="1" stop-color="#FCCB1A"/>
</linearGradient>
</defs>
</svg>
