<svg width="340" height="198" viewBox="0 0 340 198" fill="none" xmlns="http://www.w3.org/2000/svg">
<rect width="340" height="198" rx="20" fill="url(#paint0_linear_1_145)"/>
<path d="M144.301 155.252C142.77 155.252 141.333 155.047 139.989 154.636C138.663 154.225 137.534 153.637 136.601 152.872L137.833 150.24C138.803 150.968 139.811 151.509 140.857 151.864C141.921 152.2 143.078 152.368 144.329 152.368C145.71 152.368 146.774 152.125 147.521 151.64C148.286 151.155 148.669 150.473 148.669 149.596C148.669 148.849 148.314 148.28 147.605 147.888C146.914 147.477 145.766 147.095 144.161 146.74C141.659 146.199 139.839 145.499 138.701 144.64C137.562 143.781 136.993 142.531 136.993 140.888C136.993 139.712 137.31 138.667 137.945 137.752C138.579 136.837 139.475 136.119 140.633 135.596C141.809 135.073 143.162 134.812 144.693 134.812C146.093 134.812 147.418 135.027 148.669 135.456C149.938 135.867 150.974 136.445 151.777 137.192L150.573 139.824C148.799 138.405 146.839 137.696 144.693 137.696C143.405 137.696 142.387 137.967 141.641 138.508C140.894 139.031 140.521 139.749 140.521 140.664C140.521 141.448 140.847 142.045 141.501 142.456C142.173 142.867 143.311 143.249 144.917 143.604C146.578 143.996 147.931 144.425 148.977 144.892C150.022 145.34 150.825 145.928 151.385 146.656C151.945 147.365 152.225 148.261 152.225 149.344C152.225 150.539 151.907 151.584 151.273 152.48C150.638 153.357 149.723 154.039 148.529 154.524C147.334 155.009 145.925 155.252 144.301 155.252ZM161.732 155.224C160.257 155.224 158.979 154.925 157.896 154.328C156.813 153.731 155.983 152.891 155.404 151.808C154.825 150.707 154.536 149.419 154.536 147.944C154.536 146.469 154.835 145.172 155.432 144.052C156.048 142.932 156.907 142.064 158.008 141.448C159.128 140.813 160.416 140.496 161.872 140.496C162.88 140.496 163.851 140.655 164.784 140.972C165.736 141.289 166.492 141.728 167.052 142.288L166.072 144.752C165.475 144.267 164.84 143.903 164.168 143.66C163.496 143.399 162.833 143.268 162.18 143.268C160.911 143.268 159.921 143.669 159.212 144.472C158.503 145.256 158.148 146.395 158.148 147.888C158.148 149.381 158.493 150.52 159.184 151.304C159.893 152.088 160.892 152.48 162.18 152.48C162.833 152.48 163.496 152.349 164.168 152.088C164.84 151.827 165.475 151.453 166.072 150.968L167.052 153.432C166.455 153.992 165.68 154.431 164.728 154.748C163.776 155.065 162.777 155.224 161.732 155.224ZM169.402 140.86H172.874V155H169.402V140.86ZM173.07 134.448V137.892H169.178V134.448H173.07ZM176.731 146.04H185.159V148.84H176.731V146.04ZM193.432 140.86H202.728V155H199.228V143.492H193.432V155H189.932V143.492H187.216V140.86H189.932V139.432C189.932 138.163 190.128 137.164 190.52 136.436C190.912 135.689 191.547 135.148 192.424 134.812C193.32 134.476 194.534 134.308 196.064 134.308H197.1V136.884H196.428C195.551 136.884 194.907 136.959 194.496 137.108C194.086 137.239 193.806 137.509 193.656 137.92C193.507 138.312 193.432 138.947 193.432 139.824V140.86ZM202.952 134.308V137.836H199.004V134.308H202.952Z" fill="white"/>
<g clip-path="url(#clip0_1_145)">
<path d="M168.175 106.837L153.169 91.0257C152.972 90.8177 152.865 90.5398 152.873 90.2532C152.88 89.9666 153.001 89.6947 153.209 89.4973L177.758 66.2005C177.786 66.1737 177.814 66.1469 177.843 66.1201C182.731 62.3947 189.143 61.4337 197.443 63.1817C197.657 63.227 197.853 63.3364 198.004 63.4953C198.155 63.6543 198.254 63.8553 198.288 64.0718C199.607 72.4584 198.307 78.8081 194.325 83.4933C194.301 83.5226 194.275 83.5505 194.247 83.5768L169.699 106.873C169.492 107.07 169.215 107.176 168.929 107.17C168.644 107.163 168.372 107.043 168.175 106.837ZM155.482 90.3215L168.999 104.564L192.721 82.0519C196.179 77.9609 197.312 72.575 196.27 65.1553C188.915 63.7303 183.477 64.5806 179.206 67.8129L155.482 90.3215Z" fill="white"/>
<path d="M147.715 88.5232C147.612 88.415 147.533 88.2867 147.482 88.1464C147.432 88.0061 147.41 87.8568 147.42 87.7079L147.565 85.5552C147.698 83.3622 148.46 81.2538 149.76 79.4827C151.06 77.7115 152.843 76.3527 154.895 75.5688L155.027 75.5195C159.423 73.8985 164.274 74.0355 168.572 75.9021C168.727 75.9799 168.861 76.094 168.963 76.2347C169.065 76.3753 169.131 76.5384 169.157 76.7102C169.182 76.882 169.166 77.0574 169.109 77.2215C169.052 77.3856 168.957 77.5337 168.831 77.6532L157.798 88.1232C157.665 88.2494 157.502 88.3396 157.325 88.3854C157.147 88.4312 156.96 88.431 156.783 88.3849C154.165 87.7836 151.432 87.9237 148.889 88.7894C148.719 88.854 148.536 88.8749 148.357 88.8502C148.177 88.8254 148.006 88.7558 147.86 88.6478C147.809 88.6104 147.76 88.5688 147.715 88.5232ZM155.272 76.5827L155.648 77.5951C153.986 78.2334 152.543 79.3375 151.492 80.775C150.441 82.2126 149.826 83.9227 149.722 85.7004L149.681 86.3057C151.993 85.7443 154.399 85.6922 156.733 86.153L166.087 77.2763C162.705 76.2636 159.089 76.3597 155.766 77.5508L155.272 76.5827Z" fill="white"/>
<path d="M170.395 112.421C170.351 112.375 170.311 112.325 170.276 112.272C170.176 112.121 170.115 111.947 170.1 111.766C170.085 111.585 170.115 111.404 170.188 111.238C171.186 108.744 171.469 106.021 171.005 103.376C170.968 103.196 170.978 103.01 171.033 102.835C171.088 102.66 171.186 102.502 171.319 102.375L182.354 91.9031C182.48 91.7835 182.633 91.696 182.8 91.6479C182.967 91.5999 183.143 91.5928 183.313 91.6272C183.483 91.6615 183.643 91.7364 183.778 91.8455C183.913 91.9545 184.02 92.0945 184.089 92.2536C185.729 96.6424 185.612 101.495 183.763 105.799L183.707 105.929C182.817 107.937 181.367 109.647 179.53 110.853C177.694 112.058 175.548 112.709 173.351 112.727L171.194 112.759C171.045 112.761 170.897 112.732 170.759 112.674C170.622 112.616 170.498 112.53 170.395 112.421ZM173.234 103.54C173.572 105.894 173.394 108.295 172.712 110.574L173.319 110.565C175.099 110.554 176.838 110.03 178.328 109.056C179.818 108.082 180.996 106.699 181.721 105.073L182.761 105.384L181.766 104.963C183.129 101.707 183.414 98.1002 182.579 94.6703L173.234 103.54Z" fill="white"/>
<path d="M182.216 78.4927C181.44 77.6759 180.925 76.6476 180.734 75.5376C180.543 74.4277 180.685 73.2861 181.143 72.2572C181.601 71.2282 182.354 70.3582 183.306 69.7571C184.259 69.156 185.368 68.8508 186.494 68.8802C187.619 68.9095 188.711 69.272 189.631 69.9219C190.551 70.5719 191.257 71.4799 191.661 72.5313C192.065 73.5827 192.147 74.7302 191.899 75.8287C191.65 76.9271 191.082 77.9272 190.265 78.7025C189.169 79.7403 187.706 80.301 186.197 80.2617C184.688 80.2224 183.256 79.5862 182.216 78.4927ZM188.907 72.1425C188.426 71.6356 187.806 71.2827 187.125 71.1284C186.443 70.974 185.731 71.0253 185.079 71.2756C184.427 71.5258 183.864 71.9639 183.46 72.5345C183.057 73.105 182.832 73.7823 182.814 74.4807C182.796 75.1791 182.985 75.8672 183.358 76.458C183.731 77.0488 184.27 77.5158 184.909 77.7998C185.547 78.0839 186.255 78.1722 186.944 78.0537C187.632 77.9352 188.27 77.6152 188.777 77.1341C189.455 76.4889 189.849 75.6011 189.874 74.6653C189.898 73.7296 189.551 72.8223 188.907 72.1425Z" fill="white"/>
<path d="M164.163 109.102L150.698 94.9137C150.501 94.7058 150.394 94.4279 150.401 94.1413C150.409 93.8547 150.53 93.5828 150.738 93.3854L153.98 90.3089C154.188 90.1115 154.466 90.0049 154.752 90.0124C155.039 90.0199 155.311 90.1409 155.508 90.3489L168.973 104.537C169.17 104.745 169.277 105.023 169.269 105.309C169.262 105.596 169.141 105.868 168.933 106.065L165.691 109.142C165.483 109.339 165.205 109.446 164.919 109.438C164.632 109.431 164.36 109.31 164.163 109.102ZM153.011 94.2095L164.987 106.829L166.66 105.241L154.684 92.6214L153.011 94.2095Z" fill="white"/>
<path d="M143.169 115.648C142.7 115.106 142.404 114.436 142.318 113.724C142.232 113.012 142.361 112.291 142.687 111.652C143.573 109.495 144.173 107.232 144.474 104.919C145.112 100.971 145.615 97.852 152.552 94.7719C152.756 94.6812 152.983 94.6558 153.202 94.6993C153.421 94.7428 153.621 94.8531 153.775 95.015L164.211 106.012C164.365 106.174 164.465 106.38 164.497 106.601C164.529 106.822 164.492 107.048 164.391 107.247C163.537 109.071 162.382 110.739 160.975 112.18C158.762 114.281 156.496 114.547 153.873 114.856C151.569 115.057 149.3 115.551 147.122 116.327C146.472 116.621 145.748 116.714 145.045 116.594C144.341 116.474 143.69 116.146 143.174 115.653L143.169 115.648ZM152.739 97.0641C147.535 99.5264 147.199 101.608 146.609 105.266C146.28 107.75 145.632 110.181 144.679 112.498C144.385 113.19 144.408 113.813 144.739 114.162C145.067 114.507 145.679 114.557 146.377 114.301C148.715 113.467 151.15 112.933 153.622 112.711C156.135 112.413 157.798 112.22 159.489 110.615C160.549 109.533 161.434 108.294 162.114 106.941L152.739 97.0641Z" fill="white"/>
<path d="M150.561 108.582C150.252 108.229 150.054 107.793 149.992 107.329C149.93 106.864 150.006 106.391 150.212 105.97C150.648 104.908 150.943 103.795 151.092 102.657C151.417 100.667 151.699 98.9509 154.945 97.3473C155.152 97.2462 155.386 97.2138 155.612 97.2548C155.839 97.2958 156.046 97.4081 156.205 97.5753L161.786 103.457C161.944 103.623 162.045 103.836 162.074 104.065C162.103 104.293 162.059 104.524 161.947 104.726C161.539 105.499 161.018 106.207 160.399 106.826C159.312 107.784 157.917 108.32 156.467 108.337C155.334 108.437 154.218 108.68 153.147 109.061C152.717 109.245 152.243 109.298 151.783 109.213C151.324 109.129 150.899 108.91 150.564 108.585L150.561 108.582ZM155.201 99.6588C153.613 100.596 153.48 101.418 153.221 103.003C153.046 104.311 152.702 105.591 152.2 106.811C152.153 106.902 152.132 107.004 152.139 107.106C152.141 107.082 152.238 107.088 152.396 107.029C153.629 106.587 154.913 106.305 156.218 106.188C157.199 106.212 158.155 105.882 158.912 105.257C159.192 104.982 159.441 104.675 159.653 104.344L155.201 99.6588Z" fill="white"/>
<path d="M165.04 94.7927C164.843 94.5847 164.736 94.3068 164.744 94.0202C164.751 93.7336 164.872 93.4617 165.08 93.2643L169.677 88.9019C169.885 88.7045 170.163 88.5978 170.449 88.6053C170.736 88.6128 171.008 88.7339 171.205 88.9419C171.403 89.1498 171.509 89.4277 171.502 89.7143C171.494 90.0009 171.373 90.2728 171.165 90.4702L166.569 94.8326C166.361 95.03 166.083 95.1367 165.796 95.1292C165.509 95.1217 165.238 95.0006 165.04 94.7927Z" fill="white"/>
<path d="M161.562 91.0885C161.364 90.8805 161.258 90.6026 161.265 90.316C161.273 90.0294 161.394 89.7575 161.602 89.5601L163.623 87.6416C163.831 87.4442 164.109 87.3376 164.396 87.3451C164.682 87.3526 164.954 87.4736 165.152 87.6816C165.349 87.8896 165.456 88.1674 165.448 88.454C165.441 88.7407 165.32 89.0126 165.112 89.2099L163.09 91.1285C162.882 91.3258 162.604 91.4325 162.318 91.425C162.031 91.4175 161.759 91.2965 161.562 91.0885Z" fill="white"/>
<path d="M168.548 98.4503C168.351 98.2424 168.244 97.9645 168.252 97.6779C168.259 97.3913 168.38 97.1194 168.588 96.922L170.61 95.0035C170.818 94.8061 171.096 94.6994 171.382 94.7069C171.669 94.7144 171.941 94.8355 172.138 95.0434C172.336 95.2514 172.442 95.5293 172.435 95.8159C172.427 96.1025 172.306 96.3744 172.098 96.5718L170.077 98.4903C169.869 98.6877 169.591 98.7944 169.304 98.7869C169.018 98.7794 168.746 98.6583 168.548 98.4503Z" fill="white"/>
</g>
<defs>
<linearGradient id="paint0_linear_1_145" x1="11" y1="1.37127e-05" x2="340" y2="198" gradientUnits="userSpaceOnUse">
<stop stop-color="#FF6472"/>
<stop offset="1" stop-color="#FDA75D"/>
</linearGradient>
<clipPath id="clip0_1_145">
<rect width="80" height="80" fill="white" transform="translate(171.029 32.9999) rotate(46.4984)"/>
</clipPath>
</defs>
</svg>
